{"glyphs":{"0":{"ha":781,"x_min":0,"x_max":694,"o":"m 521 174 l 521 521 l 174 521 l 174 174 l 521 174 m 0 0 l 0 694 l 694 694 l 694 0 l 0 0 z "},"1":{"ha":260,"x_min":0,"x_max":174,"o":"m 174 -87 l 0 87 l 0 694 l 174 694 l 174 -87 l 174 -87 z "},"2":{"ha":781,"x_min":-87,"x_max":781,"o":"m 0 0 l 0 434 l 521 434 l 521 521 l 87 521 l -87 694 l 694 694 l 694 260 l 174 260 l 174 174 l 608 174 l 781 0 l 0 0 z "},"3":{"ha":781,"x_min":0,"x_max":781,"o":"m 0 0 l 0 174 l 347 174 l 174 347 l 347 521 l 0 521 l 0 694 l 781 694 l 434 347 l 781 0 l 0 0 z "},"4":{"ha":781,"x_min":0,"x_max":781,"o":"m 608 -87 l 434 87 l 434 260 l 0 260 l 0 781 l 174 608 l 174 434 l 434 434 l 434 694 l 608 694 l 608 434 l 781 434 l 608 260 l 608 -87 l 608 -87 z "},"5":{"ha":781,"x_min":-87,"x_max":781,"o":"m -87 0 l 87 174 l 521 174 l 521 260 l 0 260 l 0 694 l 781 694 l 608 521 l 174 521 l 174 434 l 694 434 l 694 0 l -87 0 z "},"6":{"ha":781,"x_min":0,"x_max":781,"o":"m 521 174 l 521 260 l 260 260 l 174 347 l 174 174 l 521 174 m 0 0 l 0 694 l 781 694 l 608 521 l 174 521 l 174 434 l 694 434 l 694 0 l 0 0 z "},"7":{"ha":781,"x_min":-130,"x_max":825,"o":"m -130 0 l 391 521 l 0 521 l 0 694 l 825 694 l 130 0 l -130 0 z "},"8":{"ha":781,"x_min":-87,"x_max":781,"o":"m 521 174 l 521 260 l 434 260 l 347 174 l 521 174 m 260 434 l 347 521 l 174 521 l 174 434 l 260 434 m -87 0 l 174 260 l 0 260 l 0 694 l 781 694 l 521 434 l 694 434 l 694 0 l -87 0 z "},"9":{"ha":781,"x_min":-87,"x_max":694,"o":"m 521 347 l 521 521 l 174 521 l 174 434 l 434 434 l 521 347 l 521 347 m -87 0 l 87 174 l 521 174 l 521 260 l 0 260 l 0 694 l 694 694 l 694 0 l -87 0 z "}," ":{"ha":347,"x_min":0,"x_max":0,"o":""},"!":{"ha":260,"x_min":0,"x_max":174,"o":"m 0 0 l 0 174 l 174 174 l 174 0 l 0 0 m 0 260 l 0 694 l 174 694 l 174 260 l 0 260 z "},"\"":{"ha":434,"x_min":0,"x_max":347,"o":"m 87 434 l 0 521 l 0 694 l 347 694 l 347 521 l 260 434 l 174 521 l 87 434 l 87 434 z "},"#":{"ha":781,"x_min":0,"x_max":694,"o":"m 434 260 l 434 434 l 260 434 l 260 260 l 434 260 m 87 0 l 87 87 l 0 87 l 0 260 l 87 260 l 87 434 l 0 434 l 0 608 l 87 608 l 87 694 l 260 694 l 260 608 l 434 608 l 434 694 l 608 694 l 608 608 l 694 608 l 694 434 l 608 434 l 608 260 l 694 260 l 694 87 l 608 87 l 608 0 l 434 0 l 434 87 l 260 87 l 260 0 l 87 0 z "},"$":{"ha":781,"x_min":-87,"x_max":781,"o":"m 521 174 l 521 260 l 434 260 l 434 174 l 521 174 m 260 434 l 260 521 l 174 521 l 174 434 l 260 434 m 260 -87 l 260 0 l -87 0 l 87 174 l 260 174 l 260 260 l 0 260 l 0 694 l 260 694 l 260 781 l 434 781 l 434 694 l 781 694 l 608 521 l 434 521 l 434 434 l 694 434 l 694 0 l 434 0 l 434 -87 l 260 -87 z "},"%":{"ha":781,"x_min":-130,"x_max":825,"o":"m 521 0 l 521 174 l 694 174 l 694 0 l 521 0 m 0 521 l 0 694 l 174 694 l 174 521 l 0 521 m -130 0 l 564 694 l 825 694 l 130 0 l -130 0 z "},"&":{"ha":781,"x_min":-87,"x_max":694,"o":"m -87 0 l 260 347 l -87 694 l 694 694 l 694 521 l 347 521 l 521 347 l 347 174 l 521 174 l 521 434 l 694 434 l 694 0 l -87 0 z "},"'":{"ha":260,"x_min":0,"x_max":174,"o":"m 87 434 l 0 521 l 0 694 l 174 694 l 174 521 l 87 434 l 87 434 z "},"(":{"ha":434,"x_min":0,"x_max":347,"o":"m 0 -87 l 0 781 l 347 781 l 347 608 l 174 608 l 174 87 l 347 87 l 347 -87 l 0 -87 z "},")":{"ha":434,"x_min":0,"x_max":347,"o":"m 0 -87 l 0 87 l 174 87 l 174 608 l 0 608 l 0 781 l 347 781 l 347 -87 l 0 -87 z "},"*":{"ha":608,"x_min":0,"x_max":521,"o":"m 174 174 l 174 347 l 0 347 l 0 521 l 174 521 l 174 694 l 347 694 l 347 521 l 521 521 l 521 347 l 347 347 l 347 174 l 174 174 z "},"+":{"ha":608,"x_min":0,"x_max":521,"o":"m 174 87 l 174 260 l 0 260 l 0 434 l 174 434 l 174 608 l 347 608 l 347 434 l 521 434 l 521 260 l 347 260 l 347 87 l 174 87 z "},",":{"ha":260,"x_min":0,"x_max":174,"o":"m 0 -174 l 0 174 l 174 174 l 174 0 l 0 -174 l 0 -174 z "},"-":{"ha":608,"x_min":0,"x_max":521,"o":"m 0 260 l 0 434 l 521 434 l 521 260 l 0 260 z "},".":{"ha":260,"x_min":0,"x_max":174,"o":"m 0 0 l 0 174 l 174 174 l 174 0 l 0 0 z "},"/":{"ha":781,"x_min":-130,"x_max":825,"o":"m -130 0 l 564 694 l 825 694 l 130 0 l -130 0 z "},":":{"ha":260,"x_min":0,"x_max":174,"o":"m 0 87 l 0 260 l 174 260 l 174 87 l 0 87 m 0 434 l 0 608 l 174 608 l 174 434 l 0 434 z "},";":{"ha":260,"x_min":0,"x_max":174,"o":"m 0 -87 l 0 260 l 174 260 l 174 87 l 0 -87 l 0 -87 m 0 434 l 0 608 l 174 608 l 174 434 l 0 434 z "},"<":{"ha":694,"x_min":0,"x_max":608,"o":"m 347 0 l 0 347 l 347 694 l 608 694 l 260 347 l 608 0 l 347 0 z "},"=":{"ha":521,"x_min":0,"x_max":434,"o":"m 0 87 l 0 260 l 434 260 l 434 87 l 0 87 m 0 434 l 0 608 l 434 608 l 434 434 l 0 434 z "},">":{"ha":694,"x_min":0,"x_max":608,"o":"m 0 0 l 347 347 l 0 694 l 260 694 l 608 347 l 260 0 l 0 0 z "},"?":{"ha":781,"x_min":-87,"x_max":694,"o":"m 174 0 l 174 174 l 347 174 l 347 0 l 174 0 m 174 260 l 174 434 l 521 434 l 521 521 l 87 521 l -87 694 l 694 694 l 694 260 l 174 260 z "},"@":{"ha":781,"x_min":0,"x_max":781,"o":"m 0 0 l 0 694 l 694 694 l 694 260 l 174 260 l 347 434 l 521 434 l 521 521 l 174 521 l 174 174 l 608 174 l 781 0 l 0 0 z "},"A":{"ha":781,"x_min":0,"x_max":694,"o":"m 521 434 l 521 521 l 174 521 l 174 434 l 521 434 m 694 -87 l 521 87 l 521 347 l 434 260 l 174 260 l 174 0 l 0 0 l 0 694 l 694 694 l 694 -87 l 694 -87 z "},"B":{"ha":781,"x_min":0,"x_max":781,"o":"m 521 174 l 521 260 l 260 260 l 260 434 l 347 521 l 174 521 l 174 174 l 521 174 m 0 0 l 0 694 l 781 694 l 521 434 l 694 434 l 694 0 l 0 0 z "},"C":{"ha":781,"x_min":0,"x_max":781,"o":"m 0 0 l 0 694 l 781 694 l 608 521 l 174 521 l 174 174 l 694 174 l 694 0 l 0 0 z "},"D":{"ha":781,"x_min":0,"x_max":694,"o":"m 347 174 l 521 347 l 521 521 l 174 521 l 174 174 l 347 174 m 0 0 l 0 694 l 694 694 l 694 260 l 434 0 l 0 0 z "},"E":{"ha":781,"x_min":-87,"x_max":781,"o":"m -87 0 l 174 260 l 0 260 l 0 694 l 781 694 l 608 521 l 174 521 l 174 434 l 694 434 l 694 260 l 434 260 l 347 174 l 694 174 l 694 0 l -87 0 z "},"F":{"ha":781,"x_min":-87,"x_max":694,"o":"m 0 0 l 0 434 l 174 434 l -87 694 l 694 694 l 694 521 l 347 521 l 434 434 l 694 434 l 694 260 l 174 260 l 174 0 l 0 0 z "},"G":{"ha":781,"x_min":0,"x_max":781,"o":"m 0 0 l 0 694 l 781 694 l 608 521 l 174 521 l 174 174 l 521 174 l 521 260 l 347 260 l 174 434 l 694 434 l 694 0 l 0 0 z "},"H":{"ha":781,"x_min":0,"x_max":694,"o":"m 694 -87 l 521 87 l 521 260 l 174 260 l 174 0 l 0 0 l 0 781 l 174 608 l 174 434 l 521 434 l 521 694 l 694 694 l 694 -87 l 694 -87 z "},"I":{"ha":260,"x_min":0,"x_max":174,"o":"m 174 -87 l 0 87 l 0 694 l 174 694 l 174 -87 l 174 -87 z "},"J":{"ha":781,"x_min":-87,"x_max":694,"o":"m -87 0 l 87 174 l 521 174 l 521 694 l 694 694 l 694 0 l -87 0 z "},"K":{"ha":781,"x_min":0,"x_max":781,"o":"m 0 0 l 0 694 l 174 694 l 174 0 l 0 0 m 781 -260 l 174 347 l 521 694 l 781 694 l 434 347 l 781 0 l 781 -260 l 781 -260 z "},"L":{"ha":781,"x_min":0,"x_max":694,"o":"m 0 0 l 0 781 l 174 608 l 174 174 l 694 174 l 694 0 l 0 0 z "},"M":{"ha":781,"x_min":0,"x_max":694,"o":"m 694 -87 l 521 87 l 521 260 l 347 87 l 174 260 l 174 0 l 0 0 l 0 694 l 347 347 l 694 694 l 694 -87 l 694 -87 z "},"N":{"ha":781,"x_min":0,"x_max":694,"o":"m 694 -130 l 174 391 l 174 0 l 0 0 l 0 825 l 521 304 l 521 694 l 694 694 l 694 -130 l 694 -130 z "},"O":{"ha":781,"x_min":0,"x_max":694,"o":"m 521 174 l 521 521 l 174 521 l 174 174 l 521 174 m 0 0 l 0 694 l 694 694 l 694 0 l 0 0 z "},"P":{"ha":781,"x_min":0,"x_max":694,"o":"m 0 0 l 0 694 l 694 694 l 694 260 l 260 260 l 260 434 l 521 434 l 521 521 l 174 521 l 174 0 l 0 0 z "},"Q":{"ha":781,"x_min":0,"x_max":781,"o":"m 521 174 l 521 521 l 174 521 l 174 174 l 521 174 m 781 -260 l 521 0 l 0 0 l 0 694 l 694 694 l 694 174 l 608 174 l 781 0 l 781 -260 l 781 -260 z "},"R":{"ha":781,"x_min":0,"x_max":781,"o":"m 781 -260 l 260 260 l 260 434 l 521 434 l 521 521 l 174 521 l 174 0 l 0 0 l 0 694 l 694 694 l 694 260 l 521 260 l 781 0 l 781 -260 l 781 -260 z "},"S":{"ha":781,"x_min":-87,"x_max":781,"o":"m -87 0 l 87 174 l 521 174 l 521 260 l 0 260 l 0 694 l 781 694 l 608 521 l 174 521 l 174 434 l 694 434 l 694 0 l -87 0 z "},"T":{"ha":781,"x_min":-87,"x_max":781,"o":"m 434 -87 l 260 87 l 260 260 l -87 260 l 87 434 l 260 434 l 260 521 l 0 521 l 0 694 l 694 694 l 694 521 l 434 521 l 434 434 l 781 434 l 608 260 l 434 260 l 434 -87 l 434 -87 z "},"U":{"ha":781,"x_min":0,"x_max":694,"o":"m 0 0 l 0 781 l 174 608 l 174 174 l 521 174 l 521 694 l 694 694 l 694 0 l 0 0 z "},"V":{"ha":781,"x_min":-87,"x_max":694,"o":"m 694 -87 l -87 694 l 174 694 l 521 347 l 521 694 l 694 694 l 694 -87 l 694 -87 z "},"W":{"ha":781,"x_min":0,"x_max":694,"o":"m 0 0 l 0 781 l 174 608 l 174 434 l 347 608 l 521 434 l 521 694 l 694 694 l 694 0 l 347 347 l 0 0 l 0 0 z "},"X":{"ha":781,"x_min":-87,"x_max":781,"o":"m -87 0 l 174 260 l 0 260 l 0 694 l 174 694 l 174 434 l 260 434 l 521 694 l 781 694 l 521 434 l 694 434 l 694 0 l 521 0 l 521 260 l 434 260 l 174 0 l -87 0 z "},"Y":{"ha":781,"x_min":-87,"x_max":694,"o":"m -87 0 l 87 174 l 521 174 l 521 260 l 0 260 l 0 781 l 174 608 l 174 434 l 521 434 l 521 694 l 694 694 l 694 0 l -87 0 z "},"Z":{"ha":781,"x_min":-130,"x_max":825,"o":"m -130 0 l 391 521 l 0 521 l 0 694 l 825 694 l 304 174 l 694 174 l 694 0 l -130 0 z "},"[":{"ha":434,"x_min":0,"x_max":347,"o":"m 0 -87 l 0 781 l 347 781 l 347 608 l 174 608 l 174 87 l 347 87 l 347 -87 l 0 -87 z "},"\\":{"ha":781,"x_min":-130,"x_max":825,"o":"m 564 0 l -130 694 l 130 694 l 825 0 l 564 0 z "},"]":{"ha":434,"x_min":0,"x_max":347,"o":"m 0 -87 l 0 87 l 174 87 l 174 608 l 0 608 l 0 781 l 347 781 l 347 -87 l 0 -87 z "},"_":{"ha":781,"x_min":-87,"x_max":694,"o":"m -87 0 l 87 174 l 694 174 l 694 0 l -87 0 z "},"a":{"ha":781,"x_min":0,"x_max":694,"o":"m 694 -87 l 521 87 l 521 521 l 347 521 l 174 347 l 174 174 l 434 174 l 434 0 l 0 0 l 0 434 l 260 694 l 694 694 l 694 -87 l 694 -87 z "},"b":{"ha":781,"x_min":0,"x_max":781,"o":"m 347 174 l 174 347 l 347 521 l 174 521 l 174 174 l 347 174 m 0 0 l 0 694 l 781 694 l 434 347 l 781 0 l 0 0 z "},"c":{"ha":781,"x_min":0,"x_max":694,"o":"m 0 0 l 0 434 l 260 694 l 694 694 l 694 521 l 347 521 l 174 347 l 174 174 l 694 174 l 694 0 l 0 0 z "},"d":{"ha":781,"x_min":0,"x_max":694,"o":"m 521 174 l 521 347 l 347 521 l 174 521 l 174 174 l 521 174 m 0 0 l 0 694 l 434 694 l 694 434 l 694 0 l 0 0 z "},"e":{"ha":781,"x_min":-87,"x_max":694,"o":"m -87 0 l 260 347 l -87 694 l 694 694 l 694 521 l 347 521 l 521 347 l 347 174 l 694 174 l 694 0 l -87 0 z "},"f":{"ha":781,"x_min":0,"x_max":781,"o":"m 0 0 l 0 694 l 781 694 l 608 521 l 174 521 l 174 434 l 694 434 l 694 260 l 174 260 l 174 0 l 0 0 z "},"g":{"ha":781,"x_min":0,"x_max":781,"o":"m 0 0 l 0 694 l 781 694 l 608 521 l 174 521 l 174 174 l 521 174 l 521 260 l 347 260 l 174 434 l 694 434 l 694 0 l 0 0 z "},"h":{"ha":781,"x_min":0,"x_max":694,"o":"m 694 -87 l 521 87 l 521 260 l 174 260 l 174 0 l 0 0 l 0 781 l 174 608 l 174 434 l 521 434 l 521 694 l 694 694 l 694 -87 l 694 -87 z "},"i":{"ha":260,"x_min":0,"x_max":174,"o":"m 174 -87 l 0 87 l 0 694 l 174 694 l 174 -87 l 174 -87 z "},"j":{"ha":781,"x_min":-87,"x_max":694,"o":"m -87 0 l 87 174 l 521 174 l 521 694 l 694 694 l 694 0 l -87 0 z "},"k":{"ha":781,"x_min":0,"x_max":781,"o":"m 0 0 l 0 694 l 174 694 l 174 0 l 0 0 m 521 0 l 174 347 l 521 694 l 781 694 l 434 347 l 781 0 l 521 0 z "},"l":{"ha":781,"x_min":0,"x_max":694,"o":"m 0 0 l 0 781 l 174 608 l 174 174 l 694 174 l 694 0 l 0 0 z "},"m":{"ha":781,"x_min":0,"x_max":694,"o":"m 694 -87 l 521 87 l 521 260 l 347 87 l 174 260 l 174 0 l 0 0 l 0 694 l 347 347 l 694 694 l 694 -87 l 694 -87 z "},"n":{"ha":781,"x_min":0,"x_max":694,"o":"m 694 -130 l 174 391 l 174 0 l 0 0 l 0 825 l 521 304 l 521 694 l 694 694 l 694 -130 l 694 -130 z "},"o":{"ha":781,"x_min":0,"x_max":694,"o":"m 521 174 l 521 521 l 174 521 l 174 174 l 521 174 m 0 0 l 0 694 l 694 694 l 694 0 l 0 0 z "},"p":{"ha":781,"x_min":0,"x_max":694,"o":"m 521 434 l 521 521 l 174 521 l 174 434 l 521 434 m 0 0 l 0 694 l 694 694 l 694 260 l 260 260 l 174 347 l 174 0 l 0 0 z "},"q":{"ha":781,"x_min":0,"x_max":781,"o":"m 521 174 l 521 521 l 174 521 l 174 174 l 521 174 m 0 0 l 0 694 l 694 694 l 694 174 l 608 174 l 781 0 l 0 0 z "},"r":{"ha":781,"x_min":0,"x_max":781,"o":"m 0 0 l 0 694 l 694 694 l 694 260 l 521 260 l 781 0 l 521 0 l 260 260 l 260 434 l 521 434 l 521 521 l 174 521 l 174 0 l 0 0 z "},"s":{"ha":781,"x_min":-87,"x_max":781,"o":"m -87 0 l 87 174 l 521 174 l 521 260 l 0 260 l 0 694 l 781 694 l 608 521 l 174 521 l 174 434 l 694 434 l 694 0 l -87 0 z "},"t":{"ha":781,"x_min":0,"x_max":694,"o":"m 434 -87 l 260 87 l 260 521 l 0 521 l 0 694 l 694 694 l 694 521 l 434 521 l 434 -87 l 434 -87 z "},"u":{"ha":781,"x_min":0,"x_max":694,"o":"m 0 0 l 0 781 l 174 608 l 174 174 l 521 174 l 521 694 l 694 694 l 694 0 l 0 0 z "},"v":{"ha":781,"x_min":-87,"x_max":694,"o":"m 694 -87 l -87 694 l 174 694 l 521 347 l 521 694 l 694 694 l 694 -87 l 694 -87 z "},"w":{"ha":781,"x_min":0,"x_max":694,"o":"m 0 0 l 0 781 l 174 608 l 174 434 l 347 608 l 521 434 l 521 694 l 694 694 l 694 0 l 347 347 l 0 0 l 0 0 z "},"x":{"ha":781,"x_min":-87,"x_max":781,"o":"m -87 0 l 174 260 l 0 260 l 0 694 l 174 694 l 174 434 l 260 434 l 521 694 l 781 694 l 521 434 l 694 434 l 694 0 l 521 0 l 521 260 l 434 260 l 174 0 l -87 0 z "},"y":{"ha":781,"x_min":-87,"x_max":694,"o":"m -87 0 l 87 174 l 521 174 l 521 260 l 0 260 l 0 781 l 174 608 l 174 434 l 521 434 l 521 694 l 694 694 l 694 0 l -87 0 z "},"z":{"ha":781,"x_min":-130,"x_max":825,"o":"m -130 0 l 391 521 l 0 521 l 0 694 l 825 694 l 304 174 l 694 174 l 694 0 l -130 0 z "},"{":{"ha":521,"x_min":0,"x_max":434,"o":"m 87 -87 l 87 260 l 0 260 l 0 434 l 87 434 l 87 781 l 434 781 l 434 608 l 260 608 l 260 87 l 434 87 l 434 -87 l 87 -87 z "},"|":{"ha":260,"x_min":0,"x_max":174,"o":"m 0 -87 l 0 781 l 174 781 l 174 -87 l 0 -87 z "},"}":{"ha":521,"x_min":0,"x_max":434,"o":"m 0 -87 l 0 87 l 174 87 l 174 608 l 0 608 l 0 781 l 347 781 l 347 434 l 434 434 l 434 260 l 347 260 l 347 -87 l 0 -87 z "},"~":{"ha":608,"x_min":0,"x_max":521,"o":"m 0 260 l 0 434 l 521 434 l 521 260 l 0 260 z "},"‘":{"ha":260,"x_min":0,"x_max":174,"o":"m 0 347 l 0 521 l 174 694 l 174 347 l 0 347 z "},"’":{"ha":260,"x_min":0,"x_max":174,"o":"m 0 347 l 0 694 l 174 694 l 174 521 l 0 347 l 0 347 z "},"“":{"ha":434,"x_min":0,"x_max":347,"o":"m 0 347 l 0 521 l 174 694 l 174 521 l 347 694 l 347 347 l 0 347 z "},"”":{"ha":434,"x_min":0,"x_max":347,"o":"m 0 347 l 0 694 l 347 694 l 347 521 l 174 347 l 174 521 l 0 347 l 0 347 z "}}}
